:FULLY-SPECIFIED
:FORCE-ALL-JOINTS-BE-3DOF
:DEGREES
1937
root 5.46414 13.7615 28.1946 1051.98 64.5053 327.914
lfemur -61.8379 12.5669 -4.96334
ltibia 68.888 0 0
lfoot -4.08241 -1.27705 0
ltoes -33.0466 0 0
rfemur -2.46261 -5.61958 16.6698
rtibia 61.4034 0 0
rfoot -24.5623 -29.1529 0
rtoes -27.0199 0 0
lowerback 12.6319 4.98625 4.18373
upperback -0.897808 7.62629 3.43328
thorax -7.97174 3.632 -0.142194
lowerneck -0.227175 15.1307 7.25376
upperneck 5.69672 20.6296 -7.14108
head 3.58128 10.2779 -2.65242
lclavicle 8.38044e-16 -1.62901e-14 0
lhumerus 63.1098 -24.6273 58.2828
lradius 34.5377 0 0
lwrist -0.176555 0 0
lhand -13.3601 33.9312 0
lfingers 7.12502 0 0
lthumb 12.7469 63.5498 0
rclavicle 8.38044e-16 -1.62901e-14 0
rhumerus -44.0664 21.5663 -77.1421
rradius 91.7763 0 0
rwrist -35.31 0 0
rhand -14.0463 -403.671 0
rfingers 7.12502 0 0
rthumb 12.0836 286.711 0
1938
root 5.3246 13.7751 28.2275 1051.54 64.4896 327.473
lfemur -61.8467 12.5697 -5.05904
ltibia 68.8608 0 0
lfoot -4.10695 -1.23754 0
ltoes -33.036 0 0
rfemur -2.5091 -5.61648 16.7134
rtibia 61.4028 0 0
rfoot -24.5907 -29.1736 0
rtoes -27.0207 0 0
lowerback 12.641 4.97034 4.19414
upperback -0.895374 7.60845 3.43869
thorax -7.97436 3.62322 -0.139036
lowerneck -0.232476 15.1237 7.2483
upperneck 5.68583 20.6196 -7.14604
head 3.57766 10.2728 -2.6539
lclavicle 9.15559e-16 -1.64589e-14 0
lhumerus 63.1897 -24.6575 58.1823
lradius 34.7916 0 0
lwrist -0.178416 0 0
lhand -13.3905 33.9524 0
lfingers 7.12502 0 0
lthumb 12.7175 63.5721 0
rclavicle 9.15559e-16 -1.64589e-14 0
rhumerus -44.0597 21.6432 -77.1495
rradius 91.8332 0 0
rwrist -35.3937 0 0
rhand -14.0162 -403.66 0
rfingers 7.12502 0 0
rthumb 12.1126 286.724 0
1939
root 5.18506 13.7887 28.2605 1051.11 64.4637 327.037
lfemur -61.8512 12.5853 -5.14844
ltibia 68.8389 0 0
lfoot -4.13692 -1.19993 0
ltoes -33.0217 0 0
rfemur -2.5484 -5.61304 16.758
rtibia 61.3881 0 0
rfoot -24.6215 -29.1946 0
rtoes -27.0248 0 0
lowerback 12.6508 4.95472 4.20799
upperback -0.892662 7.59171 3.44572
thorax -7.97677 3.6149 -0.136284
lowerneck -0.238734 15.1169 7.24215
upperneck 5.6761 20.6097 -7.14999
head 3.57441 10.2677 -2.65483
lclavicle 8.94335e-16 -1.66322e-14 0
lhumerus 63.2682 -24.6565 58.1208
lradius 35.0251 0 0
lwrist -0.252865 0 0
lhand -13.4361 33.9781 0
lfingers 7.12502 0 0
lthumb 12.6735 63.599 0
rclavicle 8.94335e-16 -1.66322e-14 0
rhumerus -44.0819 21.7135 -77.1723
rradius 91.912 0 0
rwrist -35.5119 0 0
rhand -13.9867 -403.648 0
rfingers 7.12502 0 0
rthumb 12.141 286.739 0
1940
root 5.04551 13.8023 28.2934 1050.67 64.4285 326.582
lfemur -61.8527 12.6121 -5.23761
ltibia 68.8202 0 0
lfoot -4.17286 -1.16182 0
ltoes -33.0037 0 0
rfemur -2.58406 -5.60913 16.8056
rtibia 61.3614 0 0
rfoot -24.6559 -29.217 0
rtoes -27.0318 0 0
lowerback 12.6615 4.93847 4.22535
upperback -0.889581 7.57496 3.45442
thorax -7.97912 3.60649 -0.133707
lowerneck -0.246098 15.1097 7.23513
upperneck 5.66677 20.5993 -7.15333
head 3.57128 10.2624 -2.65536
lclavicle 7.92795e-16 -1.68183e-14 0
lhumerus 63.3496 -24.6304 58.0873
lradius 35.255 0 0
lwrist -0.389537 0 0
lhand -13.4962 34.0086 0
lfingers 7.12502 0 0
lthumb 12.6155 63.6311 0
rclavicle 7.92795e-16 -1.68183e-14 0
rhumerus -44.1285 21.7823 -77.2088
rradius 92.0127 0 0
rwrist -35.6644 0 0
rhand -13.9562 -403.634 0
rfingers 7.12502 0 0
rthumb 12.1704 286.755 0
